<svg width="128" height="32" viewBox="0 0 128 32" fill="none" xmlns="http://www.w3.org/2000/svg">
    <g clip-path="url(#clip0_1976_12525)">
        <path d="M4.00915 25.1634L6.1081 19.4435L8.09019 25.1634H4.00915ZM10.1442 30.9331H12.0634L7.07443 17.1465H5.17324L-0.0449219 30.9331H1.89222L3.42486 26.7053H8.64752L10.1442 30.9331ZM19.2636 28.0347C19.2636 29.1606 18.3647 29.7575 16.8096 29.7575C15.5601 29.7575 14.7196 29.4048 14.2567 28.5909L12.405 28.921C13.1286 30.3996 14.6253 31.1095 16.7332 31.1095C19.6007 31.1095 21.0929 29.5133 21.0929 27.8177C21.0929 25.6337 19.0928 25.0414 16.7916 24.5711C15.677 24.3269 14.3825 23.9109 14.3825 22.9207C14.3825 22.2108 15.0657 21.3969 16.441 21.3969C16.9211 21.382 17.3959 21.5007 17.813 21.7401C18.2302 21.9795 18.5736 22.3301 18.8052 22.7534L20.4322 22.0751C19.6861 20.6463 18.1849 20.063 16.6388 20.063C14.2297 20.063 12.6342 21.2612 12.6342 23.1558C12.6342 25.3172 14.4724 25.7422 16.2568 26.1311C17.7804 26.4431 19.2636 26.8229 19.2636 28.0347ZM24.9357 17.1827L23.1379 17.9378V20.4835H21.4794V21.953H23.1289V28.6497C23.1064 30.0062 23.1064 31.0055 25.1335 31.0055C25.7018 30.9881 26.2681 30.9292 26.8279 30.8291V29.3912C26.4579 29.521 26.0726 29.6016 25.6818 29.6309C24.9357 29.6309 24.9357 29.1018 24.9357 27.8674V21.9169H26.8279V20.4473H24.9357V17.1827ZM28.4055 20.4835V30.9331H30.1539V26.113C30.1539 25.2087 30.1539 24.1506 30.6033 23.4C31.1741 22.4685 32.0146 22.1158 33.7495 22.1023V20.2936C33.0439 20.2936 31.1741 20.3614 30.1809 22.3374V20.4473L28.4055 20.4835ZM44.069 17.1827V18.8828H51.858L44.0465 29.1425V30.9512H54.1188V29.2782H46.1634L53.921 18.8783V17.1465L44.069 17.1827ZM65.0899 20.4835V30.9331H66.8383V24.9871C66.8383 24.2094 66.8383 23.4181 67.6114 22.6403C67.872 22.3787 68.1831 22.1735 68.5255 22.0374C68.868 21.9013 69.2345 21.8372 69.6025 21.849C70.5508 21.849 71.5261 22.3012 71.8497 23.2824C71.9739 23.8491 72.0117 24.4315 71.9621 25.0097V30.9331H73.7105V24.7203C73.7517 23.9994 73.6912 23.2763 73.5307 22.5725C73.3021 21.8501 72.843 21.2238 72.2246 20.7905C71.6062 20.3573 70.8631 20.1413 70.1103 20.176C69.4519 20.1651 68.8028 20.3328 68.231 20.6614C67.6592 20.99 67.1859 21.4674 66.8608 22.0435V20.4473L65.0899 20.4835ZM92.2504 28.3964C92.0293 28.8376 91.6824 29.2024 91.254 29.444C90.8257 29.6857 90.3353 29.7933 89.8459 29.753C88.6683 29.753 86.6997 29.0069 86.6997 25.5523C86.6997 24.6208 86.8705 21.329 89.7425 21.329C90.2495 21.2916 90.7556 21.4139 91.1905 21.6788C91.6254 21.9438 91.9675 22.3383 92.1695 22.8076L93.8056 22.1565C92.7943 20.4654 90.974 20.072 89.6751 20.072C86.3536 20.072 84.7311 22.7579 84.7311 25.7196C84.7311 28.2834 86.1199 31.1456 89.8054 31.1456C90.5904 31.1877 91.3722 31.0179 92.07 30.6537C92.7678 30.2896 93.3561 29.7445 93.7741 29.0747L92.2504 28.3964ZM56.6312 24.6028H62.155C62.0022 21.8626 60.4291 21.3969 59.3819 21.3969C57.8987 21.3969 56.8425 22.5002 56.6312 24.6028ZM63.6067 28.9391C63.0135 29.961 61.8629 31.1321 59.5931 31.1321C56.5144 31.1321 54.7435 29.0295 54.7435 25.5026C54.7435 21.5642 57.3279 20.0765 59.5257 20.0765C61.4359 20.0765 63.2697 21.1391 63.8854 23.7708C64.0305 24.4694 64.0968 25.1823 64.0832 25.896H56.5998C56.5548 27.6504 57.2829 29.866 59.7459 29.8253C60.179 29.8332 60.6065 29.7267 60.9858 29.5164C61.3652 29.3062 61.6831 28.9995 61.9078 28.6271L63.6067 28.9391ZM76.524 24.6163H82.0478C81.895 21.8762 80.3219 21.4104 79.2747 21.4104C77.778 21.3969 76.7218 22.5002 76.524 24.6028V24.6163ZM83.4861 28.9391C82.8928 29.961 81.7422 31.1321 79.4725 31.1321C76.4072 31.1185 74.6094 29.0159 74.6094 25.489C74.6094 21.5506 77.1892 20.063 79.3871 20.063C81.3018 20.063 83.131 21.1256 83.7468 23.7572C83.8919 24.4559 83.9582 25.1688 83.9445 25.8824H76.4791C76.4342 27.6368 77.1668 29.8524 79.6253 29.8117C80.0623 29.8202 80.4938 29.7121 80.8759 29.4985C81.2579 29.2848 81.577 28.9733 81.8006 28.5954L83.4861 28.9391ZM103.374 30.9331H101.554C101.452 30.4242 101.383 29.9092 101.347 29.3912C100.928 29.9168 100.397 30.3414 99.7938 30.634C99.1903 30.9266 98.5295 31.0798 97.8596 31.0823C95.8326 31.0823 94.3314 29.8705 94.3314 28.1025C94.3257 27.5452 94.482 26.9983 94.7809 26.529C95.3786 25.6247 96.4798 24.9328 99.581 24.6887L101.235 24.553V24.2908C101.235 23.2055 101.235 21.3878 98.9069 21.3878C97.4461 21.3878 96.9472 22.0977 96.7809 22.7443L95.1719 22.0661C95.1968 22.0085 95.2253 21.9527 95.2573 21.8988C95.873 20.7458 97.0866 20.0358 98.8529 20.0358C99.9317 20.0127 100.991 20.3288 101.882 20.9402C103.042 21.8445 103.015 23.5673 103.015 23.5673L103.073 28.9391C103.073 28.9391 103.132 30.4945 103.374 30.9331ZM100.965 28.0347C101.231 27.4559 101.249 27.2163 101.249 25.6834C100.57 25.7965 99.6485 25.9276 98.5203 26.1718C96.5877 26.5968 96.2731 27.3248 96.2731 28.0573C96.2731 28.8984 96.9338 29.6083 98.2282 29.6083C99.4282 29.6173 100.462 29.129 100.965 28.0347ZM42.8285 30.9331H41.0082C40.906 30.4242 40.8369 29.9092 40.8014 29.3912C40.382 29.9196 39.8502 30.3466 39.245 30.6409C38.6399 30.9351 37.9768 31.0891 37.3047 31.0914C35.2822 31.0914 33.7765 29.8796 33.7765 28.1116C33.7687 27.5539 33.9251 27.0064 34.2259 26.538C34.8237 25.6337 35.9294 24.9419 39.0306 24.6977L40.6756 24.5621V24.2998C40.6756 23.2146 40.6756 21.3969 38.3519 21.3969C36.8912 21.3969 36.3968 22.1068 36.2215 22.7534L34.6125 22.0751L34.6979 21.9078C35.3181 20.7548 36.5316 20.0449 38.2935 20.0449C39.372 20.0232 40.4306 20.3392 41.3228 20.9492C42.4824 21.8536 42.4599 23.5763 42.4599 23.5763L42.5408 28.9391C42.5574 29.6129 42.654 30.2823 42.8285 30.9331ZM40.4509 28.0347C40.7116 27.4559 40.7385 27.2163 40.7385 25.6834C40.0554 25.7965 39.134 25.9276 38.0103 26.1718C36.0732 26.5968 35.7406 27.3248 35.7406 28.0573C35.7406 28.8984 36.4013 29.6083 37.7002 29.6083C38.8958 29.6173 39.934 29.129 40.4509 28.0347Z"
              fill="#830051"/>
        <path d="M114.741 22.1068C114.472 22.2831 114.198 22.455 113.928 22.6358C110.782 20.8814 104.04 17.4992 103.456 17.2098C102.871 16.9204 101.739 16.4456 101.878 15.4011C102.071 13.9361 104.602 10.7257 105.676 9.40535C111.496 2.22039 114.103 0.000238553 115.829 0.239888C117.676 0.484059 118.697 2.40126 118.822 11.3768C117.793 11.0558 116.656 10.7257 115.447 10.4227C115.348 9.12049 115.11 7.15355 114.998 6.47078C114.894 5.70661 114.746 5.4127 114.436 5.37201C114.126 5.33131 113.24 6.14522 112.472 6.94103L110.04 9.4144C109.141 9.35109 108.516 9.54553 108.179 9.99317C108.042 10.2099 107.955 10.4553 107.926 10.7108C107.898 10.9663 107.927 11.225 108.013 11.4672L106.597 12.8916C105.379 14.1124 104.098 15.1162 104.031 15.6046C103.981 16.007 104.593 16.423 105.469 16.9611C107.622 18.2407 112.881 21.103 114.741 22.1068ZM122.908 13.1493C120.858 12.4304 115.78 10.5267 110.427 9.81683C108.584 9.57718 107.842 10.2328 108.602 12.0008C109.361 13.7688 111.299 16.6627 113.321 18.8512C115.344 21.0397 117.555 21.632 118.265 18.2588C118.288 18.1367 118.31 18.0192 118.337 17.9016C118.497 17.0927 118.617 16.2763 118.697 15.4554C117.798 15.0439 116.786 14.6053 115.775 14.1757C115.834 14.9489 115.923 16.2874 115.968 17.3138C115.968 17.4449 115.968 17.5715 115.968 17.6981C116.031 19.3621 115.465 19.3576 114.526 18.6748C113.429 17.888 110.067 13.4206 109.68 11.4401C109.68 11.3135 109.725 11.309 109.793 11.3271L109.874 11.3632C110.633 11.6617 113.159 12.6655 115.717 13.7552C116.737 14.2074 117.766 14.6324 118.692 15.0529C119.618 15.4735 120.409 15.8533 121.016 16.1788C122.126 16.7757 122.557 17.1827 122.09 17.662C119.78 20.0178 111.726 23.3729 108.939 27.5192L108.912 27.5599C108.878 27.6052 108.847 27.6537 108.822 27.7046L108.795 27.7498C108.589 28.1337 108.453 28.5519 108.395 28.9843C108.278 29.8886 108.746 30.7161 110.04 31.0688C110.399 31.1716 110.766 31.2413 111.137 31.2768C111.204 31.2768 111.285 31.2768 111.361 31.2768C113.847 31.3988 120.297 29.9745 122.261 29.0973C124.225 28.2201 123.681 27.2886 123.092 26.8365C122.643 26.4838 120.395 25.2177 119.303 24.6073L118.49 25.1318C119.54 25.7565 120.554 26.4404 121.528 27.1801C121.694 27.3158 121.6 27.4695 121.353 27.4876H121.155C119.384 27.6097 116.031 27.8493 114.458 27.9398C114.224 27.9398 113.964 27.9669 113.82 27.9759C114.158 27.6708 114.515 27.3884 114.89 27.1304C118.256 24.7474 123.879 21.4014 125.519 19.9635C126.746 18.9054 130.059 15.6589 122.908 13.1493Z"
              fill="#F0AB00"/>
    </g>
    <defs>
        <clipPath id="clip0_1976_12525">
            <rect width="128" height="32" fill="white"/>
        </clipPath>
    </defs>
</svg>
